HIERARCHY
ROOT pelvis
{
  OFFSET 0 0 0
  CHANNELS 6 Xposition Yposition Zposition Zrotation Xrotation Yrotation
  JOINT pelvis_right_femur
  {
    OFFSET -11.43119 -3.542788 0.2090856
    CHANNELS 3 Zrotation Xrotation Yrotation
    JOINT right_femur_tibia
    {
      OFFSET -1.028693 -40.73281 5
      CHANNELS 3 Zrotation Xrotation Yrotation
      JOINT right_tibia_foot
      {
        OFFSET -0.5013517 -42.05707 -5
        CHANNELS 3 Zrotation Xrotation Yrotation
        End Site
        {
          OFFSET 0 -5 10
        }
      }
    }
  }
  JOINT pelvis_left_femur
  {
    OFFSET 11.43119 -3.542788 0.2090856
    CHANNELS 3 Zrotation Xrotation Yrotation
    JOINT left_femur_tibia
    {
      OFFSET 1.028693 -40.73281 5
      CHANNELS 3 Zrotation Xrotation Yrotation
      JOINT left_tibia_foot
      {
        OFFSET 0.3200228 -42.98253 -5
        CHANNELS 3 Zrotation Xrotation Yrotation
        End Site
        {
          OFFSET 0 -5 10
        }
      }
    }
  }
  JOINT pelvis_spine1
  {
    OFFSET 0 8.64413 -3.209807
    CHANNELS 3 Zrotation Xrotation Yrotation
    JOINT spine1
    {
      OFFSET 0 29.53957 -1.762685
      CHANNELS 3 Zrotation Xrotation Yrotation
      JOINT spine2
      {
        OFFSET 0 16.36153 -0.1422377
        CHANNELS 3 Zrotation Xrotation Yrotation
        JOINT neck
        {
          OFFSET 0 11.60093 5
          CHANNELS 3 Zrotation Xrotation Yrotation
          End Site
          {
            OFFSET 0 20 0
          }
        }
      }
      JOINT right_manubrium
      {
        OFFSET -4.671311 15.89868 4
        CHANNELS 3 Zrotation Xrotation Yrotation
        JOINT right_clavicle
        {
          OFFSET -13.601 1.573642 -2.74176
          CHANNELS 3 Zrotation Xrotation Yrotation
          JOINT right_humerus
          {
            OFFSET -0.06331682 -27.72702 2.252146
            CHANNELS 3 Zrotation Xrotation Yrotation
            JOINT right_radius
            {
              OFFSET -0.5696302 -23.92083 0.4042105
              CHANNELS 3 Zrotation Xrotation Yrotation
              End Site
              {
                OFFSET 0 -15 0
              }
            }
          }
        }
      }
      JOINT left_manubrium
      {
        OFFSET 4.671311 15.89868 4
        CHANNELS 3 Zrotation Xrotation Yrotation
        JOINT left_clavicle
        {
          OFFSET 13.601 1.573642 -2.74176
          CHANNELS 3 Zrotation Xrotation Yrotation
          JOINT left_humerus
          {
            OFFSET 0.000209614 -29.01858 1.101395
            CHANNELS 3 Zrotation Xrotation Yrotation
            JOINT left_radius
            {
              OFFSET -0.2288314 -24.59216 1.790347
              CHANNELS 3 Zrotation Xrotation Yrotation
              End Site
              {
                OFFSET 0 -15 0
              }
            }
          }
        }
      }
    }
  }
}
MOTION
Frames: 17
Frame Time: 0.0416666666667
-0.07894857 48.17895 0.07717603 -2.285454 -17.19175 -1.880619 -60.25309 -62.8657 -58.45526 -180 84.93537 -180 5.390997 5.625431 -0.9352731 70.20495 -52.42679 67.42971 -180 79.97463 -180 -5.078904 3.025934 -18.81488 -0.3720934 19.85568 0.4706789 8.594831 13.37133 -10.68559 -10.65053 8.218446 9.729363 6.715964 -28.01685 3.07564 19.87983 -10.4424 24.79775 -62.22102 -29.39862 11.37201 0 -70.80786 0 23.12156 4.481758 36.35712 -30.19839 -28.08493 -5.565407 50.02971 -25.17812 -28.68864 0 -74.85406 0 -4.507266 -15.49639 11.32818
-0.06583927 48.13585 0.03195601 -2.277519 -17.24692 -1.886339 -60.2246 -62.90948 -58.38084 -180 84.94945 -180 5.373749 5.632448 -0.9398506 70.18053 -52.38803 67.45751 -180 79.9988 -180 -5.089055 3.034076 -18.84915 -0.2729504 19.89572 0.4468471 8.59713 13.19668 -10.70896 -10.83852 8.242383 10.23179 6.420345 -27.7198 3.613471 19.7078 -10.32361 24.94482 -62.03313 -29.34657 11.16644 0 -70.73063 0 23.27869 4.995804 36.81815 -30.10513 -27.97659 -5.706189 50.10866 -25.30588 -28.68183 0 -74.68389 0 -3.758463 -15.58417 12.01563
-0.03920262 48.18749 0.0652717 -2.284697 -17.29904 -1.878837 -60.07764 -62.80117 -58.23237 -180 84.96759 -180 5.349254 5.628018 -0.9118027 70.03055 -52.30607 67.32808 -180 80.00704 -180 -5.101105 3.023302 -18.88328 -0.1482243 19.73979 0.4071312 8.602372 13.28547 -10.76047 -11.07663 8.253286 10.89377 6.10787 -27.44715 4.354969 19.59357 -10.19601 25.11671 -61.86728 -29.27897 10.94892 0 -70.58384 0 23.40772 5.471911 37.21329 -29.99049 -27.87443 -5.887224 50.41342 -25.26829 -28.48186 0 -74.43554 0 -3.198312 -15.73166 12.61822
-0.02883552 48.20121 0.05761987 -2.33718 -17.36296 -1.919286 -59.92962 -62.71348 -58.1573 -180 85.00721 -180 5.330416 5.645192 -0.8481114 69.97476 -52.25861 67.21647 -180 80.0138 -180 -5.112829 3.008084 -18.87154 0.0219226 19.66902 0.3583794 8.543379 13.30543 -10.72099 -11.34684 8.270304 11.72188 5.773915 -27.12213 5.314528 19.45898 -10.10149 25.24797 -61.73306 -29.23114 10.74901 0 -70.44858 0 23.53083 5.900121 37.56157 -29.73808 -27.87357 -5.946637 50.93546 -25.10991 -27.99937 0 -74.40614 0 -2.777857 -15.98922 13.13114
-0.02083291 48.22422 0.03817538 -2.427583 -17.43772 -1.984567 -59.68829 -62.5802 -58.06477 -180 85.09123 -180 5.298268 5.662995 -0.752794 69.91365 -52.25181 67.02138 -180 80.02711 -180 -5.129544 2.980901 -18.83332 0.2649922 19.6319 0.3133758 8.40275 13.38737 -10.59788 -11.61511 8.324621 12.69664 5.416926 -26.72663 6.485082 19.3241 -10.05689 25.29015 -61.66051 -29.20624 10.54124 0 -70.33505 0 23.64396 6.287561 37.86181 -29.38683 -27.94162 -5.771621 51.66863 -24.73046 -27.19431 0 -74.63081 0 -2.482344 -16.3523 13.56974
0.05675755 48.32469 0.0595006 -2.591394 -17.49475 -2.004635 -59.43891 -62.31781 -57.97541 -180 85.19557 -180 5.269228 5.71015 -0.6344207 69.7562 -52.29788 66.74739 -180 80.04457 -180 -5.148158 2.954572 -18.74196 0.6677534 19.56222 0.1903083 8.247017 13.54482 -10.44695 -11.80632 8.450616 13.83174 5.071371 -26.2096 7.918809 19.23346 -10.0377 25.19329 -61.58792 -29.19836 10.35265 0 -70.25844 0 23.74981 6.641449 38.12117 -29.02455 -28.10886 -5.354772 52.6305 -24.0593 -25.976 0 -74.94393 0 -2.263236 -16.81668 13.96831
-0.05662681 48.22937 0.01054214 -2.450589 -17.55557 -2.175698 -59.61556 -62.43928 -58.217 -180 85.15391 -180 5.240965 5.742083 -0.5316847 69.7347 -52.23159 66.6505 -180 80.02811 -180 -5.190326 2.942578 -18.6368 0.524095 19.57305 0.4211827 8.016827 13.56394 -10.11298 -11.99448 8.688402 15.24199 4.703478 -25.44917 9.719274 19.15446 -10.06261 24.95905 -61.46658 -29.27624 10.21873 0 -70.29566 0 23.84398 6.958792 38.34177 -28.33831 -28.53192 -4.745205 53.96469 -23.22741 -24.28421 0 -75.23542 0 -2.091828 -17.36086 14.3268
-0.0808815 48.21822 0.0008211736 -2.400633 -17.60076 -2.327756 -59.65718 -62.48387 -58.29616 -180 85.1497 -180 5.214655 5.796175 -0.4350576 69.62233 -52.18202 66.48349 -180 80.02082 -180 -5.233697 2.921521 -18.50981 0.6070243 19.5614 0.5763553 7.792885 13.67308 -9.71071 -12.27543 9.030745 17.071 4.310302 -24.57049 12.02004 19.06639 -10.14825 24.52362 -61.36614 -29.37237 10.08848 0 -70.42806 0 23.93741 7.238861 38.53034 -27.54982 -29.15558 -4.028415 55.55699 -22.19191 -22.19261 0 -75.20982 0 -1.957828 -17.93334 14.67954
-0.09927294 48.22545 -0.01126874 -2.384779 -17.62895 -2.42911 -59.62702 -62.47987 -58.33241 -180 85.19375 -180 5.192546 5.834575 -0.3670723 69.52387 -52.20584 66.29057 -180 80.03236 -180 -5.262674 2.912959 -18.39177 0.8078562 19.56207 0.7092522 7.562355 13.81327 -9.23151 -12.73234 9.48248 19.26259 3.86501 -23.61781 14.69185 18.97648 -10.29015 23.92267 -61.30683 -29.4773 9.946481 0 -70.65174 0 24.02782 7.487042 38.69434 -26.6278 -30.06628 -3.268759 57.35109 -21.04655 -19.75587 0 -74.60671 0 -1.859959 -18.47088 15.05747
-0.1059628 48.2352 -0.03428789 -2.365388 -17.63614 -2.441664 -59.689 -62.4243 -58.44948 -180 85.23127 -180 5.185123 5.857566 -0.2903559 69.39877 -52.33247 66.10091 -180 80.05874 -180 -5.29312 2.900349 -18.25506 1.03435 19.63966 0.8238269 7.390373 13.91635 -8.754991 -13.23534 9.998708 21.55161 3.429543 -22.68858 17.44451 18.87482 -10.47446 23.23782 -61.29826 -29.58065 9.776782 0 -71.00974 0 24.11634 7.677169 38.83516 -25.57115 -31.27168 -2.54513 59.26848 -19.86047 -17.06387 0 -73.21426 0 -1.805896 -18.91707 15.49501
-0.09843356 48.25063 -0.04701957 -2.434406 -17.63802 -2.372917 -59.65039 -62.2868 -58.52865 -180 85.26857 -180 5.211328 5.848681 -0.2884464 69.36873 -52.52852 65.95094 -180 80.0544 -180 -5.299879 2.896776 -18.16536 1.324623 19.78826 0.939475 7.331318 13.98974 -8.393694 -13.69785 10.53912 23.61863 3.033649 -21.86965 19.91532 18.75757 -10.66815 22.5591 -61.34384 -29.63346 9.567174 0 -71.49369 0 24.20613 7.809776 38.96791 -24.42604 -32.66861 -1.873331 61.17887 -18.68169 -14.31646 0 -71.00017 0 -1.826347 -19.26119 16.01934
-0.003629594 48.35181 -0.02436642 -2.645227 -17.61426 -2.173936 -59.47028 -62.00728 -58.44381 -180 85.32982 -180 5.254423 5.830076 -0.3493586 69.32658 -52.80822 65.79309 -180 80.06135 -180 -5.283754 2.910749 -18.12385 1.737126 19.98767 0.9303945 7.419831 14.03328 -8.210518 -14.00306 11.03138 25.25479 2.725628 -21.25382 21.89244 18.65966 -10.81965 21.91823 -61.44049 -29.59396 9.325017 0 -72.04279 0 24.29823 7.879944 39.08155 -23.27494 -34.16512 -1.251547 62.95734 -17.50977 -11.66217 0 -67.99418 0 -1.951106 -19.52248 16.60357
-0.08451967 48.22426 -0.1043675 -2.581778 -17.54867 -2.037592 -59.74787 -62.1423 -58.69187 -180 85.2663 -180 5.33507 5.768205 -0.4597856 69.57061 -53.05238 65.99001 -180 80.05354 -180 -5.273387 2.939264 -18.13032 1.464495 20.37761 1.16251 7.606282 13.75744 -8.062525 -14.04441 11.40266 26.36747 2.5416 -20.81108 23.31164 18.54509 -10.95451 21.41185 -61.52526 -29.54295 9.0923 0 -72.68221 0 24.38658 7.885957 39.18917 -21.81832 -35.77345 -0.7084824 64.74297 -16.47463 -9.098719 0 -64.21623 0 -2.210747 -19.67851 17.26009
-0.08535933 48.22704 -0.07571773 -2.696468 -17.44696 -1.774532 -59.71124 -62.09088 -58.65642 -180 85.26756 -180 5.4249 5.694128 -0.6233653 69.81922 -53.29261 66.19943 -180 80.04935 -180 -5.249286 2.952534 -18.17843 1.315516 20.55166 1.246706 7.949641 13.6931 -8.142116 -13.90121 11.70497 27.04936 2.472341 -20.64598 24.26385 18.48777 -11.02733 21.05735 -61.65461 -29.40383 8.84397 0 -73.26464 0 24.48041 7.841642 39.28945 -20.53686 -37.3422 -0.4199417 66.32026 -15.5075 -6.794606 0 -59.74685 0 -2.648454 -19.75009 17.94079
0.04664828 48.40387 0.02386041 -2.991035 -17.27723 -1.45349 -59.38015 -61.88069 -58.34584 -180 85.32185 -180 5.520956 5.641156 -0.819032 70.00933 -53.52408 66.35595 -180 80.04537 -180 -5.220695 2.957553 -18.23503 1.338532 20.48905 1.194883 8.413583 13.91533 -8.413818 -13.64573 11.94863 27.4447 2.498483 -20.7032 24.89156 18.46874 -11.0785 20.82103 -61.86781 -29.17382 8.546017 0 -73.74672 0 24.56745 7.751322 39.37921 -19.49794 -38.81307 -0.422864 67.64217 -14.63425 -4.786204 0 -54.81946 0 -3.226218 -19.74209 18.6171
0.02191586 48.34087 0.04271545 -3.023461 -17.07174 -1.309155 -59.45768 -62.1406 -58.33332 -180 85.2501 -180 5.639327 5.563174 -1.053432 70.50115 -53.67787 66.83258 -180 79.97675 -180 -5.208647 2.959928 -18.29559 0.7578802 20.55157 1.352597 8.858158 13.85719 -8.553795 -13.34602 12.03781 27.71986 2.569007 -20.84105 25.34721 18.43612 -11.13947 20.65935 -62.05065 -28.97338 8.288683 0 -74.24112 0 24.65924 7.606835 39.46863 -18.24906 -40.12956 -0.5543565 68.85396 -13.91638 -3.065179 0 -49.65409 0 -3.93536 -19.68049 19.24501
0.08283589 48.35531 0.108619 -3.165713 -16.86428 -1.143004 -59.40633 -62.29466 -58.18883 -180 85.22756 -180 5.750496 5.498042 -1.301104 70.88837 -53.86547 67.21051 -180 79.909 -180 -5.195537 2.951761 -18.3565 0.3628924 20.58186 1.370029 9.280272 13.81781 -8.713588 -13.09363 12.06507 27.94859 2.667168 -21.07362 25.68764 18.46561 -11.1786 20.51768 -62.22997 -28.73965 8.038604 0 -74.66045 0 24.74174 7.419051 39.5486 -17.24923 -41.29868 -0.8051709 69.75253 -13.27594 -1.624826 0 -44.58833 0 -4.715619 -19.60813 19.7703
